<?xml version="1.0" encoding="utf-8"?>
<!-- Generator: Adobe Illustrator 25.4.1, SVG Export Plug-In . SVG Version: 6.00 Build 0)  -->
<svg version="1.1" id="레이어_1" xmlns="http://www.w3.org/2000/svg" xmlns:xlink="http://www.w3.org/1999/xlink" x="0px"
	 y="0px" viewBox="0 0 177.1 173.8" style="enable-background:new 0 0 177.1 173.8;" xml:space="preserve">
<style type="text/css">
	.st0{fill:#FFFFFF;}
</style>
<g>
	<rect x="68.1" y="16.6" class="st0" width="13.3" height="31.9"/>
	<rect x="12" y="16.6" class="st0" width="28.6" height="15.5"/>
	<rect x="16.4" y="147" class="st0" width="24.3" height="6.8"/>
	<rect x="12" y="109.6" class="st0" width="13.3" height="12.9"/>
	<rect x="124.6" y="26.4" class="st0" width="13.3" height="22.1"/>
	<path class="st0" d="M173.2,33.2V12.5l-8-8h-13.9v2.7l-1.5-2.7h-7.8l-4-4.5h-13.9v4.5h-11.7v4l-3.7-4H94.9v10.9L84.1,4.5H65.5
		l-9.4,9.4v3.4L43.3,4.5h-34L0,13.9v20.8l11.9,11.9H0v13.9l8,8h11.5v14.1h1.3v0.6h-9v4.5H0v9.8l4,4h1.3v0.1L0,106.9v18.2l9.4,9.4h0
		l1.3,1.3l1.1,1.1l-7.4,7.4v12.1l9.4,9.4h0l1.3,1.3l1.3,1.3h0l1.3,1.3h0l1.3,1.3l1.3,1.3h0l1.3,1.3h29.6l9.4-9.4v-12.1l-9.4-9.4h0
		l-0.6-0.6h10v-2.7l1.9,2.7h11.8l3.1-11.4l0.9,3.4l8,8h3v23.6l8,8h19.6v-4l3.5,4h52.7v-12.2l-4-3.6h4v-23.6l-2.7-2.4h2.7v-9.8
		l-4-2.8h4v-12.2l-2.7-1.7h2.7v-9.8l-5.3-5.1h5.3V76.7l-8.2-8.2h8.2V49.7h3.9V35.9L173.2,33.2z M1.8,95.7v-6.1h11.7v-4.5h10.2v4.5
		h11.7v6.1H1.8z M10.1,132.7l-8.3-8.3v-16.7l8.3-8.3h17.1l8.3,8.3v16.7l-8.3,8.3H10.1z M50.9,145.1v10.6l-8.3,8.3H14.5l-8.3-8.3
		v-10.6l8.3-8.3h28.1L50.9,145.1z M50.9,132.5H40.7v-6.8h-2.3v-10.2h2.3v-6h-2.3V99.4h2.3v-10h10.2V132.5z M50.9,58.7H31.5v22.1
		H21.3V58.7H1.8V48.5h49.1V58.7z M50.9,34l-8.3,8.3H10.1L1.8,34V14.7l8.3-8.3h32.4l8.3,8.3V34z M57.9,14.7l8.3-8.3h17.1l8.3,8.3
		v35.7l-8.3,8.3H66.2l-8.3-8.3V14.7z M79.8,132.5l-7.4-26.9L65,132.5h-8l10.1-36.8h-9v-6.1h29.2v6.1h-9.7l10.1,36.8H79.8z M97.3,164
		h-6.1l0-48.7h-4.3v-10.2h4.3V89.6h6.1V164z M101,164V89.6h6.1l0,74.4H101z M110.6,39.9H107v40.8H96.8V6.4H107v23.4h3.7V39.9z
		 M114.3,6.4h11.7V1.8h10.2v4.5H148v6.1h-33.7V6.4z M114.3,24.5l8.3-8.3h17.1l8.3,8.3v25.9l-8.3,8.3h-17.1l-8.3-8.3V24.5z
		 M114.3,61.4h10.2v9.2h38.8v10.2h-49.1V61.4z M114.3,89.6h49.1v6.1h-38.8v5.3h38.8v8.5h-49.1v-4.3v-4.3v-5.3h0V89.6z M114.3,116.1
		h49.1v6.1h-49.1V116.1z M163.4,146.6L163.4,146.6l0,1.6h-38.8v7.3h38.8v8.5h-49.1V161v-5.5v-7.3h0V142h38.9v-5.2h-38.9v-8.5h49.1
		v2.3h0V146.6z M167.3,39.9h-3.9v18.7h-10.2V6.4h10.2v23.4h3.9V39.9z"/>
</g>
</svg>
